<svg version="1.1" id="Layer_1" xmlns="http://www.w3.org/2000/svg" xmlns:xlink="http://www.w3.org/1999/xlink" x="0px" y="0px"
	 width="100%" viewBox="0 0 1024 1024" enable-background="new 0 0 1024 1024" xml:space="preserve">
<path fill="#000001" opacity="1.000000" stroke="none" 
	d="
M1025.000000,375.000000 
	C1025.000000,592.000000 1025.000000,808.500000 1025.000000,1025.000000 
	C683.666687,1025.000000 342.333344,1025.000000 1.000000,1025.000000 
	C1.000000,683.666687 1.000000,342.333344 1.000000,1.000000 
	C342.333344,1.000000 683.666687,1.000000 1025.000000,1.000000 
	C1025.000000,125.500000 1025.000000,250.000000 1025.000000,375.000000 
M807.662598,242.021149 
	C814.209961,235.869247 820.757507,229.717590 827.304504,223.565338 
	C831.859070,219.285339 833.744812,214.064758 833.166992,207.820389 
	C832.816406,204.032318 832.597839,200.352081 827.902344,199.367752 
	C822.926514,198.324677 815.217346,200.824203 814.386597,204.578720 
	C811.635132,217.013931 809.455444,229.575668 806.865723,241.899338 
	C806.865723,241.899338 806.749695,242.275101 806.749695,242.275101 
	C806.749695,242.275101 806.970215,241.966415 807.662598,242.021149 
M830.331482,237.023392 
	C819.783508,246.200882 811.533325,257.256470 804.658203,269.308167 
	C802.734131,272.681000 801.330505,276.764740 801.086365,280.611176 
	C799.938171,298.699646 799.226807,316.816986 798.493591,334.929443 
	C798.379944,337.736755 798.961182,340.572174 799.312683,344.389526 
	C801.402466,340.700226 802.874512,338.101410 804.346558,335.502625 
	C804.836121,335.551849 805.325684,335.601074 805.815308,335.650299 
	C806.984314,338.982483 808.153320,342.314697 809.679932,346.666168 
	C810.402527,344.226746 810.963440,342.729340 811.286682,341.182281 
	C816.217896,317.578033 821.319214,294.006561 825.936768,270.340820 
	C828.092957,259.290405 829.298889,248.054642 831.238220,237.127243 
	C831.165405,237.093918 831.092590,237.060577 830.331482,237.023392 
M733.203735,665.158264 
	C726.829712,675.112610 720.646973,685.196350 714.028198,694.985168 
	C707.318115,704.908875 700.254333,714.597900 693.161438,724.254395 
	C691.704529,726.237793 689.433105,727.622742 686.816833,729.914490 
	C684.634338,721.931091 686.228516,715.540466 688.302979,709.253845 
	C705.033630,658.553955 721.330627,607.703918 738.713989,557.228271 
	C757.124451,503.770111 767.704895,449.017059 770.007690,392.536804 
	C772.043701,342.599579 767.579956,292.998230 763.503845,243.349335 
	C761.497192,218.907150 760.854797,194.429871 764.051697,170.021576 
	C764.541382,166.283264 765.983093,162.669678 767.190186,158.244293 
	C773.865723,162.472321 775.251648,168.310165 776.757751,173.775742 
	C782.454956,194.450104 784.518738,215.666519 785.079651,237.014496 
	C785.453491,251.238968 785.150635,265.481232 785.150635,279.715546 
	C785.708862,279.752106 786.267090,279.788696 786.825317,279.825256 
	C787.228821,278.103912 787.707886,276.396332 788.024231,274.659119 
	C791.363037,256.323029 794.637207,237.975067 798.010071,219.645279 
	C800.119690,208.180573 804.684326,198.180496 814.349121,190.847626 
	C825.073059,182.711090 837.118530,185.285522 842.853149,197.395767 
	C844.358521,200.574692 845.688416,203.836685 847.540039,208.068848 
	C854.512817,196.363556 861.228760,185.832870 867.084351,174.843750 
	C869.052063,171.151031 870.338684,165.912903 869.362305,162.028091 
	C863.557922,138.933594 852.194092,119.166916 830.412720,107.750732 
	C815.576050,99.974480 800.159119,93.089203 784.487976,87.164375 
	C747.778259,73.285477 710.706299,60.367100 673.927368,46.666782 
	C668.784241,44.750946 666.509827,45.289394 663.841553,50.061142 
	C654.071289,67.533249 643.176880,84.222809 629.092346,98.690392 
	C577.468445,151.718155 486.513885,164.806778 422.280121,112.426193 
	C410.228668,102.598602 399.723816,90.809372 388.981262,79.474258 
	C384.775787,75.036827 380.810883,73.852287 375.352692,76.130074 
	C371.057983,77.922325 366.680298,79.539833 362.268097,81.022568 
	C327.109955,92.837555 291.980621,104.741959 256.727478,116.267265 
	C249.390320,118.665985 246.408371,123.070198 245.992905,130.419922 
	C245.118759,145.884491 243.729736,161.319672 242.826324,176.782928 
	C238.220810,255.614426 238.977966,334.317444 248.903748,412.774872 
	C254.869766,459.932648 264.505432,506.317505 279.070190,551.593750 
	C281.751221,559.928101 285.372345,568.063354 289.465332,575.812012 
	C293.800598,584.019348 299.776428,591.363831 304.066315,599.590698 
	C326.015656,641.683350 352.187073,680.970032 381.858002,717.962769 
	C416.680267,761.377869 454.676147,801.690063 498.652344,836.031982 
	C509.933014,844.841248 521.796265,852.903198 533.362549,861.348511 
	C540.598755,866.632080 547.390381,872.648865 555.059814,877.191467 
	C577.681580,890.590576 602.005798,899.942017 627.587769,906.070251 
	C628.980530,906.403809 629.974426,908.402588 631.154053,909.626343 
	C629.810425,910.523926 628.518311,912.075317 627.112732,912.185913 
	C623.987183,912.431824 620.753357,912.257141 617.653931,911.726685 
	C597.152405,908.217834 576.477722,905.432251 556.226379,900.804932 
	C495.281921,886.879639 439.180267,861.978699 389.198273,824.100830 
	C378.600220,816.069397 368.828735,806.947266 358.303802,797.939331 
	C357.928925,797.854614 357.554047,797.769958 357.179138,797.685242 
	C357.400330,798.171631 357.621490,798.658020 357.992218,799.816223 
	C358.934296,801.186035 359.784729,802.630798 360.833496,803.913391 
	C367.261566,811.774841 373.804108,819.543640 380.158691,827.463562 
	C382.732666,830.671631 385.208405,835.109863 382.012146,838.264343 
	C378.633820,841.598511 375.111389,837.479248 372.793213,835.075256 
	C365.291504,827.295471 357.740814,819.481567 351.050018,811.016052 
	C330.431793,784.929077 313.834747,756.214844 297.834839,727.182617 
	C286.607117,706.809692 272.239868,689.066956 255.098282,673.481323 
	C252.773727,671.367798 250.263382,669.328918 247.525925,667.825684 
	C241.460846,664.495178 235.818771,667.298645 235.116364,674.073486 
	C234.743729,677.667725 234.593994,681.590576 235.632614,684.968872 
	C238.897736,695.589172 241.555511,706.658936 246.652817,716.401428 
	C259.375122,740.717529 273.042847,764.554871 286.843903,788.286133 
	C299.248779,809.616699 314.837616,828.591736 333.824554,844.341980 
	C358.157288,864.526733 385.414642,880.237427 414.004364,893.615723 
	C459.408142,914.862000 505.748413,933.709656 553.754822,948.348206 
	C572.911743,954.189697 592.086670,955.791809 611.918457,952.169983 
	C621.494202,950.421265 631.426270,950.403870 641.210632,950.166809 
	C643.755737,950.105286 646.352051,952.163391 648.924866,953.247925 
	C646.539490,954.754822 644.323181,957.131104 641.742371,957.632996 
	C618.482239,962.156311 594.974487,964.960327 571.271973,964.663269 
	C555.464539,964.465149 539.623596,963.435669 523.886719,961.878784 
	C495.723511,959.092590 467.478912,956.583618 439.535828,952.238403 
	C388.667023,944.328247 339.009216,930.822937 289.320709,917.566284 
	C276.171936,914.058228 262.769653,911.335083 249.341995,909.105408 
	C242.361969,907.946350 240.825867,910.200317 243.857544,916.721069 
	C250.862213,931.786926 258.678558,946.473877 265.773285,961.499878 
	C269.837463,970.107361 276.027924,973.418396 285.512726,973.127502 
	C309.376068,972.395691 332.608093,976.881592 355.326660,983.763733 
	C384.860535,992.710388 415.009766,999.255005 445.540833,1002.497192 
	C479.895599,1006.145508 514.522888,1004.056030 548.753967,999.338135 
	C581.212280,994.864563 612.317932,984.884766 642.565063,972.451599 
	C673.665894,959.667480 704.738098,946.844788 737.698730,939.538269 
	C748.206726,937.208984 758.914978,935.783203 769.928101,933.875366 
	C771.333984,903.054749 771.335266,872.171509 762.069458,840.801636 
	C753.829834,850.169006 747.041199,858.855896 739.246765,866.520081 
	C727.635071,877.937744 715.383545,888.711975 703.222351,899.555969 
	C701.294067,901.275452 698.443176,903.295349 695.810181,900.061951 
	C693.381897,897.079834 693.921570,894.012817 696.407349,891.519409 
	C699.689575,888.226746 703.310791,885.272095 706.785339,882.171143 
	C736.408875,855.732971 761.347290,826.128906 772.339966,786.818787 
	C776.034790,773.605957 779.756897,760.493774 777.975342,746.585815 
	C777.638855,743.958679 776.679626,741.411316 776.007751,738.827209 
	C775.489075,738.689392 774.970337,738.551636 774.451660,738.413879 
	C774.179077,739.034058 773.962036,739.686340 773.625488,740.269714 
	C770.133606,746.322571 766.590942,752.346436 763.121887,758.412354 
	C741.394714,796.403442 719.749817,834.441895 697.890991,872.356995 
	C694.747192,877.810059 690.796753,882.843750 686.835754,887.762329 
	C684.560974,890.586853 681.824402,894.924133 677.501465,891.868103 
	C673.721985,889.196289 676.768127,885.358765 678.208740,882.465454 
	C680.724060,877.413513 683.862488,872.674561 686.676025,867.767822 
	C707.204102,831.967041 728.021301,796.327026 748.109924,760.281128 
	C758.813599,741.075256 767.625305,721.041748 770.784180,698.812561 
	C772.498901,686.746643 772.969971,675.507202 766.470337,664.536377 
	C763.645386,659.768127 762.498474,654.018250 760.452026,648.767761 
	C759.907837,647.371521 758.855530,646.173340 758.036438,644.884216 
	C757.003235,646.021240 755.525757,646.987183 755.010925,648.323853 
	C752.201477,655.618286 749.593506,662.991333 746.980591,670.360168 
	C730.577759,716.619385 714.493652,763.012390 692.026123,806.819824 
	C688.009216,814.651978 683.540466,822.281738 678.807983,829.703796 
	C676.765198,832.907349 673.829346,837.035278 669.128113,834.005615 
	C664.472229,831.005127 667.754089,826.945374 669.345520,823.849365 
	C673.298401,816.159485 678.510193,809.058228 681.930481,801.163574 
	C693.629883,774.159546 705.220703,747.090393 715.973572,719.700806 
	C722.949951,701.930664 728.395325,683.559509 734.806946,664.981689 
	C734.765259,664.536316 734.723572,664.090942 734.681885,663.645569 
	C734.381714,664.031372 734.081543,664.417175 733.203735,665.158264 
M860.144165,388.504272 
	C859.169067,414.141541 858.130432,439.776611 857.251831,465.417175 
	C856.926880,474.901062 856.783203,484.400940 856.933044,493.887573 
	C857.018677,499.311584 858.060364,499.837891 863.473022,498.643738 
	C867.209167,497.819489 870.946472,496.981903 874.641846,495.995117 
	C898.261414,489.687866 921.857849,483.293457 945.491943,477.041199 
	C949.880676,475.880188 951.545227,473.746979 950.005188,469.207214 
	C948.833435,465.753113 948.328796,462.077606 947.250732,458.586029 
	C933.415222,413.774750 919.662170,368.937134 905.552856,324.212006 
	C902.482605,314.479797 900.946289,304.988434 902.551331,294.788330 
	C903.877502,286.360413 902.997253,277.662018 896.182556,271.646149 
	C890.503906,266.633209 888.800476,260.593872 887.865479,253.660858 
	C885.730347,237.829025 883.486816,222.006531 880.903687,206.243088 
	C879.928650,200.292618 877.895447,194.515549 876.256592,188.327271 
	C870.018982,192.567749 862.616821,205.548126 862.534790,211.562973 
	C861.735046,270.210754 860.951843,328.858765 860.144165,388.504272 
M119.058258,370.098541 
	C125.132973,376.237946 131.334000,382.258545 137.250229,388.547089 
	C144.544785,396.300659 152.120728,403.877167 158.604584,412.279144 
	C164.179764,419.503662 164.109665,424.912659 155.689407,430.778442 
	C147.363800,436.578247 138.944611,442.351532 131.271545,448.955658 
	C118.944611,459.565247 109.584122,472.440826 105.391724,488.470673 
	C104.710190,491.076569 104.008453,494.727386 105.258873,496.593262 
	C109.151634,502.402191 109.421112,508.755981 109.794388,515.230286 
	C110.359589,525.033386 111.495895,526.651184 120.904709,528.947754 
	C138.637741,533.276245 156.693634,534.880737 174.913300,534.666016 
	C178.225662,534.627014 181.576233,534.198669 184.827438,533.544067 
	C188.643738,532.775879 190.953644,530.915039 190.169312,526.219421 
	C189.322250,521.148315 189.230743,515.938232 188.991302,510.780334 
	C187.515289,478.987427 185.955078,447.197540 184.680878,415.396332 
	C182.806229,368.609802 180.983246,321.819763 179.518188,275.019318 
	C179.171219,263.935944 178.743698,252.655563 182.590958,241.859711 
	C182.888428,241.024994 182.973755,239.531799 182.483902,239.087433 
	C175.890411,233.106293 169.177200,227.257111 162.004807,220.945007 
	C161.182724,222.885574 160.727921,223.582565 160.591904,224.337021 
	C158.702225,234.818680 156.649521,245.278336 155.125732,255.814087 
	C154.669662,258.967407 155.044800,262.601196 156.195572,265.566010 
	C162.019882,280.571442 162.171417,280.554016 148.095001,287.884766 
	C140.113205,292.041534 135.010101,298.025482 134.955307,307.477631 
	C134.948654,308.623627 134.642700,309.786865 134.349945,310.909363 
	C129.270477,330.384613 124.171364,349.854706 119.058258,370.098541 
M499.702057,106.994667 
	C491.377167,104.167297 482.711548,102.071899 474.787537,98.383347 
	C443.754333,83.937714 423.272095,58.462509 405.736053,30.281918 
	C397.635284,17.263893 397.841736,16.960842 385.284821,25.502546 
	C375.870239,31.906704 374.620178,33.999763 380.664825,43.544147 
	C389.271027,57.133163 398.354767,70.625626 408.840607,82.772888 
	C427.212250,104.055428 449.827576,119.781441 477.039001,128.031189 
	C513.136230,138.974869 547.925720,133.726929 581.477722,118.226082 
	C615.154724,102.667473 637.062805,75.588570 652.741150,42.869671 
	C653.621521,41.032482 653.694946,37.308170 652.526672,36.252995 
	C647.805542,31.989132 642.450439,28.427319 637.260620,24.555025 
	C625.406982,41.939629 612.171448,56.910156 597.286743,70.325485 
	C580.664856,85.306564 561.851440,96.766685 540.389526,103.626152 
	C527.356445,107.791656 514.192078,109.983490 499.702057,106.994667 
M841.521606,251.889069 
	C834.156494,287.907593 826.837097,323.935516 819.404114,359.940002 
	C816.381104,374.583405 811.187561,389.064026 810.330383,403.813324 
	C808.156555,441.218262 807.854492,478.732666 806.870056,516.205017 
	C806.760803,520.361755 806.964905,524.538208 807.247314,528.690308 
	C807.468933,531.948669 809.085632,533.338257 812.624695,532.517334 
	C822.286804,530.276001 831.073059,526.234680 837.433960,518.582642 
	C840.471313,514.928650 842.928223,510.108765 843.772827,505.475128 
	C845.045837,498.490845 844.788330,491.210114 844.983948,484.050018 
	C845.880432,451.235718 846.926270,418.423462 847.510010,385.603180 
	C848.401978,335.453430 848.964355,285.297791 849.632202,235.144165 
	C849.658936,233.138260 849.333069,231.127686 849.171448,229.119278 
	C843.405945,235.615067 841.880188,243.106842 841.521606,251.889069 
M270.659485,861.831665 
	C286.748444,869.022888 302.608337,876.792297 318.976746,883.278381 
	C348.012207,894.783813 377.345459,905.539429 406.589966,916.513062 
	C409.206879,917.495056 412.085999,917.778259 414.843323,918.385925 
	C415.159210,917.706543 415.475067,917.027222 415.790955,916.347839 
	C411.783234,913.679993 408.064331,910.340759 403.713928,908.469727 
	C390.445618,902.763000 376.692322,898.148315 363.578766,892.126526 
	C347.424286,884.708191 331.851013,876.033936 315.793518,868.392151 
	C297.482910,859.677979 283.746368,846.098328 272.206604,829.797180 
	C251.615768,800.710388 235.790924,769.090637 221.968613,736.378601 
	C221.292908,734.779358 220.500107,733.229675 219.761826,731.656921 
	C219.057632,734.114624 218.868408,736.464355 219.487381,738.577393 
	C222.327728,748.274048 224.813492,758.134521 228.523972,767.501465 
	C233.331940,779.639038 234.404648,791.625244 230.350204,804.036072 
	C229.007980,808.144714 227.556396,812.218750 226.273224,816.345398 
	C222.954865,827.017212 228.200729,835.721802 232.941879,844.493591 
	C233.342270,845.234375 234.510056,845.632812 235.393677,846.028870 
	C246.919846,851.195862 258.459137,856.333679 270.659485,861.831665 
M299.069702,679.387268 
	C294.623199,672.351013 290.127930,665.345032 285.744080,658.269958 
	C281.489746,651.403809 277.349792,644.466797 273.159576,637.560852 
	C272.852966,640.171265 273.432159,642.245422 274.247925,644.221924 
	C291.379211,685.730225 315.383728,723.350586 341.227051,759.726868 
	C356.504211,781.230530 379.379791,793.556946 403.205078,803.715942 
	C407.072327,805.364868 412.579742,808.490723 415.619080,804.082581 
	C418.670776,799.656433 413.318512,796.172791 410.468262,793.465576 
	C400.334595,783.840820 390.210297,774.100769 379.227234,765.495911 
	C348.131348,741.133484 321.287872,712.939880 299.069702,679.387268 
M892.950928,526.380737 
	C911.983582,520.435669 931.133667,514.835815 950.003723,508.413116 
	C960.922363,504.696777 960.821167,503.674683 957.679932,492.884827 
	C956.397644,488.480377 954.400330,486.926331 949.732361,488.460571 
	C941.678284,491.107788 933.528259,493.532715 925.297302,495.558411 
	C906.419067,500.204407 887.589905,505.204742 868.501831,508.787842 
	C856.381287,511.062988 856.188110,510.037659 855.035583,522.522583 
	C854.959045,523.352173 854.914185,524.184631 854.839844,525.014404 
	C854.185730,532.308289 855.037964,533.460938 862.272888,532.325317 
	C872.287781,530.753174 882.206970,528.571350 892.950928,526.380737 
M277.498169,888.922485 
	C289.367798,891.684998 301.237427,894.447510 313.107056,897.209961 
	C313.277191,896.749451 313.447357,896.288879 313.617523,895.828308 
	C286.605865,882.652039 259.594238,869.475708 232.019226,856.024597 
	C232.019226,866.089172 232.019226,875.066040 232.019226,884.478455 
	C247.746170,882.438660 262.218994,885.505371 277.498169,888.922485 
M193.129715,182.123459 
	C193.047821,180.884048 193.462799,179.107712 192.800842,178.495163 
	C189.335129,175.288101 185.596344,172.376099 181.952484,169.361526 
	C181.424377,169.542923 180.896255,169.724319 180.368149,169.905716 
	C179.569595,176.068909 179.015289,182.276398 177.907700,188.383545 
	C176.656799,195.280884 178.604187,203.905518 167.166672,206.771759 
	C173.087814,212.414917 178.107178,217.198654 184.140717,222.948944 
	C187.296478,208.688370 190.150986,195.789154 193.129715,182.123459 
M209.216171,507.266571 
	C210.098984,517.551147 210.829224,527.851929 211.920914,538.114258 
	C212.592972,544.431763 215.761978,548.129333 220.479950,549.103271 
	C225.966293,550.235840 227.282471,548.900574 225.720703,543.507141 
	C221.465424,528.811829 217.159546,514.130920 212.802032,499.465637 
	C211.919952,496.497009 210.722763,493.621979 209.670853,490.703766 
	C209.495026,490.793579 209.319183,490.883392 209.143356,490.973175 
	C209.143356,496.093384 209.143356,501.213593 209.216171,507.266571 
M251.223358,621.531555 
	C246.926178,609.146301 242.629013,596.760986 238.331833,584.375732 
	C237.671234,584.436890 237.010635,584.498047 236.350037,584.559143 
	C234.578796,591.354980 232.770599,598.141785 231.100861,604.962402 
	C230.954468,605.560364 231.541397,606.571594 232.083298,607.068420 
	C237.947830,612.445862 243.862961,617.768372 249.826996,623.034912 
	C249.981827,623.171631 250.847534,622.503296 251.223358,621.531555 
M805.704590,550.376221 
	C803.743103,554.565674 806.991028,554.823425 809.574707,555.285950 
	C821.214172,557.369385 836.816528,547.467834 841.681580,534.469727 
	C839.764343,535.000366 838.195801,535.289490 836.738464,535.861755 
	C828.093628,539.256104 819.440918,542.635437 810.874573,546.220032 
	C809.104370,546.960815 807.687988,548.547119 805.704590,550.376221 
M189.553421,154.195175 
	C186.470337,157.656128 188.745789,159.962646 191.385422,161.990448 
	C194.326828,164.250046 197.411713,163.629272 199.098175,160.672028 
	C201.364548,156.697891 202.962814,152.318222 204.562576,148.006760 
	C204.934387,147.004684 204.542908,145.042709 203.792892,144.495895 
	C203.076569,143.973633 201.116379,144.310562 200.256409,144.980377 
	C196.735809,147.722565 193.426804,150.736435 189.553421,154.195175 
M912.629395,257.076599 
	C910.389404,249.855911 908.149353,242.635208 905.909363,235.414520 
	C906.150330,244.260971 906.476685,253.061218 913.189941,260.992950 
	C913.006042,259.212158 912.927185,258.448242 912.629395,257.076599 
M771.875916,62.522739 
	C778.084412,64.751564 784.292969,66.980392 790.501465,69.209221 
	C790.732788,68.522858 790.964050,67.836494 791.195374,67.150131 
	C782.269775,64.086441 773.344238,61.022758 764.418640,57.959076 
	C764.220642,58.523785 764.022644,59.088490 763.824646,59.653198 
	C766.267944,60.512268 768.711243,61.371342 771.875916,62.522739 
M460.362305,16.163839 
	C457.628693,15.503494 454.909729,14.772207 452.157257,14.203086 
	C449.490875,13.651765 446.790039,13.267183 444.104340,12.809375 
	C444.021362,13.278965 443.938354,13.748555 443.855347,14.218146 
	C453.074829,16.523449 462.294312,18.828753 471.513794,21.134056 
	C471.667511,20.515421 471.821198,19.896786 471.974915,19.278151 
	C468.366089,18.321417 464.757233,17.364683 460.362305,16.163839 
M924.961426,317.526428 
	C923.899475,314.083099 922.837463,310.639771 921.775513,307.196442 
	C921.337219,307.323547 920.898865,307.450684 920.460571,307.577789 
	C922.887817,316.170868 925.315002,324.763916 927.742249,333.356995 
	C928.197632,333.233887 928.653015,333.110779 929.108398,332.987701 
	C927.781860,328.097961 926.455322,323.208191 924.961426,317.526428 
M929.449341,336.811493 
	C929.529419,336.409760 929.609436,336.008026 929.689514,335.606293 
	C929.516785,335.908844 929.343994,336.211395 929.449341,336.811493 
z"/>
<path fill="#4444ED" opacity="1.000000" stroke="none" 
	d="
M358.676483,798.327576 
	C368.828735,806.947266 378.600220,816.069397 389.198273,824.100830 
	C439.180267,861.978699 495.281921,886.879639 556.226379,900.804932 
	C576.477722,905.432251 597.152405,908.217834 617.653931,911.726685 
	C620.753357,912.257141 623.987183,912.431824 627.112732,912.185913 
	C628.518311,912.075317 629.810425,910.523926 631.154053,909.626343 
	C629.974426,908.402588 628.980530,906.403809 627.587769,906.070251 
	C602.005798,899.942017 577.681580,890.590576 555.059814,877.191467 
	C547.390381,872.648865 540.598755,866.632080 533.362549,861.348511 
	C521.796265,852.903198 509.933014,844.841248 498.652344,836.031982 
	C454.676147,801.690063 416.680267,761.377869 381.858002,717.962769 
	C352.187073,680.970032 326.015656,641.683350 304.066315,599.590698 
	C299.776428,591.363831 293.800598,584.019348 289.465332,575.812012 
	C285.372345,568.063354 281.751221,559.928101 279.070190,551.593750 
	C264.505432,506.317505 254.869766,459.932648 248.903748,412.774872 
	C238.977966,334.317444 238.220810,255.614426 242.826324,176.782928 
	C243.729736,161.319672 245.118759,145.884491 245.992905,130.419922 
	C246.408371,123.070198 249.390320,118.665985 256.727478,116.267265 
	C291.980621,104.741959 327.109955,92.837555 362.268097,81.022568 
	C366.680298,79.539833 371.057983,77.922325 375.352692,76.130074 
	C380.810883,73.852287 384.775787,75.036827 388.981262,79.474258 
	C399.723816,90.809372 410.228668,102.598602 422.280121,112.426193 
	C486.513885,164.806778 577.468445,151.718155 629.092346,98.690392 
	C643.176880,84.222809 654.071289,67.533249 663.841553,50.061142 
	C666.509827,45.289394 668.784241,44.750946 673.927368,46.666782 
	C710.706299,60.367100 747.778259,73.285477 784.487976,87.164375 
	C800.159119,93.089203 815.576050,99.974480 830.412720,107.750732 
	C852.194092,119.166916 863.557922,138.933594 869.362305,162.028091 
	C870.338684,165.912903 869.052063,171.151031 867.084351,174.843750 
	C861.228760,185.832870 854.512817,196.363556 847.540039,208.068848 
	C845.688416,203.836685 844.358521,200.574692 842.853149,197.395767 
	C837.118530,185.285522 825.073059,182.711090 814.349121,190.847626 
	C804.684326,198.180496 800.119690,208.180573 798.010071,219.645279 
	C794.637207,237.975067 791.363037,256.323029 788.024231,274.659119 
	C787.707886,276.396332 787.228821,278.103912 786.825317,279.825256 
	C786.267090,279.788696 785.708862,279.752106 785.150635,279.715546 
	C785.150635,265.481232 785.453491,251.238968 785.079651,237.014496 
	C784.518738,215.666519 782.454956,194.450104 776.757751,173.775742 
	C775.251648,168.310165 773.865723,162.472321 767.190186,158.244293 
	C765.983093,162.669678 764.541382,166.283264 764.051697,170.021576 
	C760.854797,194.429871 761.497192,218.907150 763.503845,243.349335 
	C767.579956,292.998230 772.043701,342.599579 770.007690,392.536804 
	C767.704895,449.017059 757.124451,503.770111 738.713989,557.228271 
	C721.330627,607.703918 705.033630,658.553955 688.302979,709.253845 
	C686.228516,715.540466 684.634338,721.931091 686.816833,729.914490 
	C689.433105,727.622742 691.704529,726.237793 693.161438,724.254395 
	C700.254333,714.597900 707.318115,704.908875 714.028198,694.985168 
	C720.646973,685.196350 726.829712,675.112610 733.678467,665.144714 
	C734.153198,665.131165 734.526611,665.457581 734.526611,665.457581 
	C728.395325,683.559509 722.949951,701.930664 715.973572,719.700806 
	C705.220703,747.090393 693.629883,774.159546 681.930481,801.163574 
	C678.510193,809.058228 673.298401,816.159485 669.345520,823.849365 
	C667.754089,826.945374 664.472229,831.005127 669.128113,834.005615 
	C673.829346,837.035278 676.765198,832.907349 678.807983,829.703796 
	C683.540466,822.281738 688.009216,814.651978 692.026123,806.819824 
	C714.493652,763.012390 730.577759,716.619385 746.980591,670.360168 
	C749.593506,662.991333 752.201477,655.618286 755.010925,648.323853 
	C755.525757,646.987183 757.003235,646.021240 758.036499,644.884216 
	C758.855530,646.173340 759.907837,647.371521 760.452026,648.767761 
	C762.498474,654.018250 763.645386,659.768127 766.470337,664.536377 
	C772.969971,675.507202 772.498901,686.746643 770.784180,698.812561 
	C767.625305,721.041748 758.813599,741.075256 748.109924,760.281128 
	C728.021301,796.327026 707.204102,831.967041 686.676025,867.767822 
	C683.862488,872.674561 680.724060,877.413513 678.208740,882.465454 
	C676.768127,885.358765 673.721985,889.196289 677.501465,891.868103 
	C681.824402,894.924133 684.560974,890.586853 686.835754,887.762329 
	C690.796753,882.843750 694.747192,877.810059 697.890991,872.356995 
	C719.749817,834.441895 741.394714,796.403442 763.121887,758.412354 
	C766.590942,752.346436 770.133606,746.322571 773.625488,740.269714 
	C773.962036,739.686340 774.179077,739.034058 774.451660,738.413879 
	C774.970337,738.551636 775.489075,738.689392 776.007751,738.827209 
	C776.679626,741.411316 777.638855,743.958679 777.975342,746.585815 
	C779.756897,760.493774 776.034790,773.605957 772.339966,786.818787 
	C761.347290,826.128906 736.408875,855.732971 706.785339,882.171143 
	C703.310791,885.272095 699.689575,888.226746 696.407349,891.519409 
	C693.921570,894.012817 693.381897,897.079834 695.810181,900.061951 
	C698.443176,903.295349 701.294067,901.275452 703.222351,899.555969 
	C715.383545,888.711975 727.635071,877.937744 739.246765,866.520081 
	C747.041199,858.855896 753.829834,850.169006 762.069458,840.801636 
	C771.335266,872.171509 771.333984,903.054749 769.928101,933.875366 
	C758.914978,935.783203 748.206726,937.208984 737.698730,939.538269 
	C704.738098,946.844788 673.665894,959.667480 642.565063,972.451599 
	C612.317932,984.884766 581.212280,994.864563 548.753967,999.338135 
	C514.522888,1004.056030 479.895599,1006.145508 445.540833,1002.497192 
	C415.009766,999.255005 384.860535,992.710388 355.326660,983.763733 
	C332.608093,976.881592 309.376068,972.395691 285.512726,973.127502 
	C276.027924,973.418396 269.837463,970.107361 265.773285,961.499878 
	C258.678558,946.473877 250.862213,931.786926 243.857544,916.721069 
	C240.825867,910.200317 242.361969,907.946350 249.341995,909.105408 
	C262.769653,911.335083 276.171936,914.058228 289.320709,917.566284 
	C339.009216,930.822937 388.667023,944.328247 439.535828,952.238403 
	C467.478912,956.583618 495.723511,959.092590 523.886719,961.878784 
	C539.623596,963.435669 555.464539,964.465149 571.271973,964.663269 
	C594.974487,964.960327 618.482239,962.156311 641.742371,957.632996 
	C644.323181,957.131104 646.539490,954.754822 648.924866,953.247925 
	C646.352051,952.163391 643.755737,950.105286 641.210632,950.166809 
	C631.426270,950.403870 621.494202,950.421265 611.918457,952.169983 
	C592.086670,955.791809 572.911743,954.189697 553.754822,948.348206 
	C505.748413,933.709656 459.408142,914.862000 414.004364,893.615723 
	C385.414642,880.237427 358.157288,864.526733 333.824554,844.341980 
	C314.837616,828.591736 299.248779,809.616699 286.843903,788.286133 
	C273.042847,764.554871 259.375122,740.717529 246.652817,716.401428 
	C241.555511,706.658936 238.897736,695.589172 235.632614,684.968872 
	C234.593994,681.590576 234.743729,677.667725 235.116364,674.073486 
	C235.818771,667.298645 241.460846,664.495178 247.525925,667.825684 
	C250.263382,669.328918 252.773727,671.367798 255.098282,673.481323 
	C272.239868,689.066956 286.607117,706.809692 297.834839,727.182617 
	C313.834747,756.214844 330.431793,784.929077 351.050018,811.016052 
	C357.740814,819.481567 365.291504,827.295471 372.793213,835.075256 
	C375.111389,837.479248 378.633820,841.598511 382.012146,838.264343 
	C385.208405,835.109863 382.732666,830.671631 380.158691,827.463562 
	C373.804108,819.543640 367.261566,811.774841 360.833496,803.913391 
	C359.784729,802.630798 358.934296,801.186035 358.126831,799.276978 
	C358.399780,798.601013 358.538147,798.464294 358.676483,798.327576 
z"/>
<path fill="#4444EC" opacity="1.000000" stroke="none" 
	d="
M860.154053,388.005493 
	C860.951843,328.858765 861.735046,270.210754 862.534790,211.562973 
	C862.616821,205.548126 870.018982,192.567749 876.256592,188.327271 
	C877.895447,194.515549 879.928650,200.292618 880.903687,206.243088 
	C883.486816,222.006531 885.730347,237.829025 887.865479,253.660858 
	C888.800476,260.593872 890.503906,266.633209 896.182556,271.646149 
	C902.997253,277.662018 903.877502,286.360413 902.551331,294.788330 
	C900.946289,304.988434 902.482605,314.479797 905.552856,324.212006 
	C919.662170,368.937134 933.415222,413.774750 947.250732,458.586029 
	C948.328796,462.077606 948.833435,465.753113 950.005188,469.207214 
	C951.545227,473.746979 949.880676,475.880188 945.491943,477.041199 
	C921.857849,483.293457 898.261414,489.687866 874.641846,495.995117 
	C870.946472,496.981903 867.209167,497.819489 863.473022,498.643738 
	C858.060364,499.837891 857.018677,499.311584 856.933044,493.887573 
	C856.783203,484.400940 856.926880,474.901062 857.251831,465.417175 
	C858.130432,439.776611 859.169067,414.141541 860.154053,388.005493 
z"/>
<path fill="#4444EB" opacity="1.000000" stroke="none" 
	d="
M119.067398,369.712219 
	C124.171364,349.854706 129.270477,330.384613 134.349945,310.909363 
	C134.642700,309.786865 134.948654,308.623627 134.955307,307.477631 
	C135.010101,298.025482 140.113205,292.041534 148.095001,287.884766 
	C162.171417,280.554016 162.019882,280.571442 156.195572,265.566010 
	C155.044800,262.601196 154.669662,258.967407 155.125732,255.814087 
	C156.649521,245.278336 158.702225,234.818680 160.591904,224.337021 
	C160.727921,223.582565 161.182724,222.885574 162.004807,220.945007 
	C169.177200,227.257111 175.890411,233.106293 182.483902,239.087433 
	C182.973755,239.531799 182.888428,241.024994 182.590958,241.859711 
	C178.743698,252.655563 179.171219,263.935944 179.518188,275.019318 
	C180.983246,321.819763 182.806229,368.609802 184.680878,415.396332 
	C185.955078,447.197540 187.515289,478.987427 188.991302,510.780334 
	C189.230743,515.938232 189.322250,521.148315 190.169312,526.219421 
	C190.953644,530.915039 188.643738,532.775879 184.827438,533.544067 
	C181.576233,534.198669 178.225662,534.627014 174.913300,534.666016 
	C156.693634,534.880737 138.637741,533.276245 120.904709,528.947754 
	C111.495895,526.651184 110.359589,525.033386 109.794388,515.230286 
	C109.421112,508.755981 109.151634,502.402191 105.258873,496.593262 
	C104.008453,494.727386 104.710190,491.076569 105.391724,488.470673 
	C109.584122,472.440826 118.944611,459.565247 131.271545,448.955658 
	C138.944611,442.351532 147.363800,436.578247 155.689407,430.778442 
	C164.109665,424.912659 164.179764,419.503662 158.604584,412.279144 
	C152.120728,403.877167 144.544785,396.300659 137.250229,388.547089 
	C131.334000,382.258545 125.132973,376.237946 119.067398,369.712219 
z"/>
<path fill="#4343EB" opacity="1.000000" stroke="none" 
	d="
M500.132935,107.047714 
	C514.192078,109.983490 527.356445,107.791656 540.389526,103.626152 
	C561.851440,96.766685 580.664856,85.306564 597.286743,70.325485 
	C612.171448,56.910156 625.406982,41.939629 637.260620,24.555025 
	C642.450439,28.427319 647.805542,31.989132 652.526672,36.252995 
	C653.694946,37.308170 653.621521,41.032482 652.741150,42.869671 
	C637.062805,75.588570 615.154724,102.667473 581.477722,118.226082 
	C547.925720,133.726929 513.136230,138.974869 477.039001,128.031189 
	C449.827576,119.781441 427.212250,104.055428 408.840607,82.772888 
	C398.354767,70.625626 389.271027,57.133163 380.664825,43.544147 
	C374.620178,33.999763 375.870239,31.906704 385.284821,25.502546 
	C397.841736,16.960842 397.635284,17.263893 405.736053,30.281918 
	C423.272095,58.462509 443.754333,83.937714 474.787537,98.383347 
	C482.711548,102.071899 491.377167,104.167297 500.132935,107.047714 
z"/>
<path fill="#4343EB" opacity="1.000000" stroke="none" 
	d="
M841.591431,251.447449 
	C841.880188,243.106842 843.405945,235.615067 849.171448,229.119278 
	C849.333069,231.127686 849.658936,233.138260 849.632202,235.144165 
	C848.964355,285.297791 848.401978,335.453430 847.510010,385.603180 
	C846.926270,418.423462 845.880432,451.235718 844.983948,484.050018 
	C844.788330,491.210114 845.045837,498.490845 843.772827,505.475128 
	C842.928223,510.108765 840.471313,514.928650 837.433960,518.582642 
	C831.073059,526.234680 822.286804,530.276001 812.624695,532.517334 
	C809.085632,533.338257 807.468933,531.948669 807.247314,528.690308 
	C806.964905,524.538208 806.760803,520.361755 806.870056,516.205017 
	C807.854492,478.732666 808.156555,441.218262 810.330383,403.813324 
	C811.187561,389.064026 816.381104,374.583405 819.404114,359.940002 
	C826.837097,323.935516 834.156494,287.907593 841.591431,251.447449 
z"/>
<path fill="#4343E9" opacity="1.000000" stroke="none" 
	d="
M270.327301,861.655273 
	C258.459137,856.333679 246.919846,851.195862 235.393677,846.028870 
	C234.510056,845.632812 233.342270,845.234375 232.941879,844.493591 
	C228.200729,835.721802 222.954865,827.017212 226.273224,816.345398 
	C227.556396,812.218750 229.007980,808.144714 230.350204,804.036072 
	C234.404648,791.625244 233.331940,779.639038 228.523972,767.501465 
	C224.813492,758.134521 222.327728,748.274048 219.487381,738.577393 
	C218.868408,736.464355 219.057632,734.114624 219.761826,731.656921 
	C220.500107,733.229675 221.292908,734.779358 221.968613,736.378601 
	C235.790924,769.090637 251.615768,800.710388 272.206604,829.797180 
	C283.746368,846.098328 297.482910,859.677979 315.793518,868.392151 
	C331.851013,876.033936 347.424286,884.708191 363.578766,892.126526 
	C376.692322,898.148315 390.445618,902.763000 403.713928,908.469727 
	C408.064331,910.340759 411.783234,913.679993 415.790955,916.347839 
	C415.475067,917.027222 415.159210,917.706543 414.843323,918.385925 
	C412.085999,917.778259 409.206879,917.495056 406.589966,916.513062 
	C377.345459,905.539429 348.012207,894.783813 318.976746,883.278381 
	C302.608337,876.792297 286.748444,869.022888 270.327301,861.655273 
z"/>
<path fill="#4343E9" opacity="1.000000" stroke="none" 
	d="
M299.273132,679.685913 
	C321.287872,712.939880 348.131348,741.133484 379.227234,765.495911 
	C390.210297,774.100769 400.334595,783.840820 410.468262,793.465576 
	C413.318512,796.172791 418.670776,799.656433 415.619080,804.082581 
	C412.579742,808.490723 407.072327,805.364868 403.205078,803.715942 
	C379.379791,793.556946 356.504211,781.230530 341.227051,759.726868 
	C315.383728,723.350586 291.379211,685.730225 274.247925,644.221924 
	C273.432159,642.245422 272.852966,640.171265 273.159576,637.560852 
	C277.349792,644.466797 281.489746,651.403809 285.744080,658.269958 
	C290.127930,665.345032 294.623199,672.351013 299.273132,679.685913 
z"/>
<path fill="#4343E9" opacity="1.000000" stroke="none" 
	d="
M892.559082,526.515625 
	C882.206970,528.571350 872.287781,530.753174 862.272888,532.325317 
	C855.037964,533.460938 854.185730,532.308289 854.839844,525.014404 
	C854.914185,524.184631 854.959045,523.352173 855.035583,522.522583 
	C856.188110,510.037659 856.381287,511.062988 868.501831,508.787842 
	C887.589905,505.204742 906.419067,500.204407 925.297302,495.558411 
	C933.528259,493.532715 941.678284,491.107788 949.732361,488.460571 
	C954.400330,486.926331 956.397644,488.480377 957.679932,492.884827 
	C960.821167,503.674683 960.922363,504.696777 950.003723,508.413116 
	C931.133667,514.835815 911.983582,520.435669 892.559082,526.515625 
z"/>
<path fill="#4343E8" opacity="1.000000" stroke="none" 
	d="
M830.935486,236.902893 
	C829.298889,248.054642 828.092957,259.290405 825.936768,270.340820 
	C821.319214,294.006561 816.217896,317.578033 811.286682,341.182281 
	C810.963440,342.729340 810.402527,344.226746 809.679932,346.666168 
	C808.153320,342.314697 806.984314,338.982483 805.815308,335.650299 
	C805.325684,335.601074 804.836121,335.551849 804.346558,335.502625 
	C802.874512,338.101410 801.402466,340.700226 799.312683,344.389526 
	C798.961182,340.572174 798.379944,337.736755 798.493591,334.929443 
	C799.226807,316.816986 799.938171,298.699646 801.086365,280.611176 
	C801.330505,276.764740 802.734131,272.681000 804.658203,269.308167 
	C811.533325,257.256470 819.783508,246.200882 830.653442,236.994995 
	C830.975403,236.966599 830.935486,236.902893 830.935486,236.902893 
z"/>
<path fill="#4242E7" opacity="1.000000" stroke="none" 
	d="
M277.085571,888.834961 
	C262.218994,885.505371 247.746170,882.438660 232.019226,884.478455 
	C232.019226,875.066040 232.019226,866.089172 232.019226,856.024597 
	C259.594238,869.475708 286.605865,882.652039 313.617523,895.828308 
	C313.447357,896.288879 313.277191,896.749451 313.107056,897.209961 
	C301.237427,894.447510 289.367798,891.684998 277.085571,888.834961 
z"/>
<path fill="#4242E7" opacity="1.000000" stroke="none" 
	d="
M193.067596,182.506683 
	C190.150986,195.789154 187.296478,208.688370 184.140717,222.948944 
	C178.107178,217.198654 173.087814,212.414917 167.166672,206.771759 
	C178.604187,203.905518 176.656799,195.280884 177.907700,188.383545 
	C179.015289,182.276398 179.569595,176.068909 180.368149,169.905716 
	C180.896255,169.724319 181.424377,169.542923 181.952484,169.361526 
	C185.596344,172.376099 189.335129,175.288101 192.800842,178.495163 
	C193.462799,179.107712 193.047821,180.884048 193.067596,182.506683 
z"/>
<path fill="#4343E9" opacity="1.000000" stroke="none" 
	d="
M807.056396,242.088867 
	C809.455444,229.575668 811.635132,217.013931 814.386597,204.578720 
	C815.217346,200.824203 822.926514,198.324677 827.902344,199.367752 
	C832.597839,200.352081 832.816406,204.032318 833.166992,207.820389 
	C833.744812,214.064758 831.859070,219.285339 827.304504,223.565338 
	C820.757507,229.717590 814.209961,235.869247 807.340820,242.022369 
	C807.019043,242.023590 807.056396,242.088867 807.056396,242.088867 
z"/>
<path fill="#4242E6" opacity="1.000000" stroke="none" 
	d="
M209.179764,506.800171 
	C209.143356,501.213593 209.143356,496.093384 209.143356,490.973175 
	C209.319183,490.883392 209.495026,490.793579 209.670853,490.703766 
	C210.722763,493.621979 211.919952,496.497009 212.802032,499.465637 
	C217.159546,514.130920 221.465424,528.811829 225.720703,543.507141 
	C227.282471,548.900574 225.966293,550.235840 220.479950,549.103271 
	C215.761978,548.129333 212.592972,544.431763 211.920914,538.114258 
	C210.829224,527.851929 210.098984,517.551147 209.179764,506.800171 
z"/>
<path fill="#4242E6" opacity="1.000000" stroke="none" 
	d="
M251.302521,621.870972 
	C250.847534,622.503296 249.981827,623.171631 249.826996,623.034912 
	C243.862961,617.768372 237.947830,612.445862 232.083298,607.068420 
	C231.541397,606.571594 230.954468,605.560364 231.100861,604.962402 
	C232.770599,598.141785 234.578796,591.354980 236.350037,584.559143 
	C237.010635,584.498047 237.671234,584.436890 238.331833,584.375732 
	C242.629013,596.760986 246.926178,609.146301 251.302521,621.870972 
z"/>
<path fill="#4242E6" opacity="1.000000" stroke="none" 
	d="
M805.906555,550.059937 
	C807.687988,548.547119 809.104370,546.960815 810.874573,546.220032 
	C819.440918,542.635437 828.093628,539.256104 836.738464,535.861755 
	C838.195801,535.289490 839.764343,535.000366 841.681580,534.469727 
	C836.816528,547.467834 821.214172,557.369385 809.574707,555.285950 
	C806.991028,554.823425 803.743103,554.565674 805.906555,550.059937 
z"/>
<path fill="#4242E5" opacity="1.000000" stroke="none" 
	d="
M189.796661,153.922729 
	C193.426804,150.736435 196.735809,147.722565 200.256409,144.980377 
	C201.116379,144.310562 203.076569,143.973633 203.792892,144.495895 
	C204.542908,145.042709 204.934387,147.004684 204.562576,148.006760 
	C202.962814,152.318222 201.364548,156.697891 199.098175,160.672028 
	C197.411713,163.629272 194.326828,164.250046 191.385422,161.990448 
	C188.745789,159.962646 186.470337,157.656128 189.796661,153.922729 
z"/>
<path fill="#3B3BCD" opacity="1.000000" stroke="none" 
	d="
M912.738892,257.380463 
	C912.927185,258.448242 913.006042,259.212158 913.189941,260.992950 
	C906.476685,253.061218 906.150330,244.260971 905.909363,235.414520 
	C908.149353,242.635208 910.389404,249.855911 912.738892,257.380463 
z"/>
<path fill="#3A3ACA" opacity="1.000000" stroke="none" 
	d="
M771.515259,62.376575 
	C768.711243,61.371342 766.267944,60.512268 763.824646,59.653198 
	C764.022644,59.088490 764.220642,58.523785 764.418640,57.959076 
	C773.344238,61.022758 782.269775,64.086441 791.195374,67.150131 
	C790.964050,67.836494 790.732788,68.522858 790.501465,69.209221 
	C784.292969,66.980392 778.084412,64.751564 771.515259,62.376575 
z"/>
<path fill="#3C3CCF" opacity="1.000000" stroke="none" 
	d="
M460.755371,16.285894 
	C464.757233,17.364683 468.366089,18.321417 471.974915,19.278151 
	C471.821198,19.896786 471.667511,20.515421 471.513794,21.134056 
	C462.294312,18.828753 453.074829,16.523449 443.855347,14.218146 
	C443.938354,13.748555 444.021362,13.278965 444.104340,12.809375 
	C446.790039,13.267183 449.490875,13.651765 452.157257,14.203086 
	C454.909729,14.772207 457.628693,15.503494 460.755371,16.285894 
z"/>
<path fill="#2C2C98" opacity="1.000000" stroke="none" 
	d="
M925.045105,317.922424 
	C926.455322,323.208191 927.781860,328.097961 929.108398,332.987701 
	C928.653015,333.110779 928.197632,333.233887 927.742249,333.356995 
	C925.315002,324.763916 922.887817,316.170868 920.460571,307.577789 
	C920.898865,307.450684 921.337219,307.323547 921.775513,307.196442 
	C922.837463,310.639771 923.899475,314.083099 925.045105,317.922424 
z"/>
<path fill="#2C2C98" opacity="1.000000" stroke="none" 
	d="
M929.310303,336.662720 
	C929.343994,336.211395 929.516785,335.908844 929.689514,335.606293 
	C929.609436,336.008026 929.529419,336.409760 929.310303,336.662720 
z"/>
<path fill="#4444ED" opacity="1.000000" stroke="none" 
	d="
M733.967285,664.967041 
	C734.081543,664.417175 734.381714,664.031372 734.681885,663.645569 
	C734.723572,664.090942 734.765259,664.536316 734.666748,665.219604 
	C734.526611,665.457581 734.153198,665.131165 733.967285,664.967041 
z"/>
<path fill="#4444ED" opacity="1.000000" stroke="none" 
	d="
M358.052032,798.941101 
	C357.621490,798.658020 357.400330,798.171631 357.179138,797.685303 
	C357.554047,797.769958 357.928925,797.854614 358.490143,798.133423 
	C358.538147,798.464294 358.399780,798.601013 358.052032,798.941101 
z"/>
<path fill="#4343E9" opacity="1.000000" stroke="none" 
	d="
M806.994629,241.994995 
	C806.970215,241.966415 806.749695,242.275101 806.749695,242.275101 
	C806.749695,242.275101 806.865723,241.899338 806.961060,241.994110 
	C807.056396,242.088867 807.019043,242.023590 806.994629,241.994995 
z"/>
<path fill="#4343E8" opacity="1.000000" stroke="none" 
	d="
M830.997559,236.996918 
	C831.092590,237.060577 831.165405,237.093918 831.086853,237.015076 
	C830.935486,236.902893 830.975403,236.966599 830.997559,236.996918 
z"/>
</svg>